<svg width="66" height="65" viewBox="0 0 66 65" fill="none" xmlns="http://www.w3.org/2000/svg">
<g clip-path="url(#clip0_2143_184)">
<path fill-rule="evenodd" clip-rule="evenodd" d="M-0.790833 0.505127H66.3835V65.7744H-0.790833V0.505127Z" fill="#203E38"/>
<path d="M29.4985 13.8V25H28.3465V14.824H25.7065V13.8H29.4985ZM39.8238 23.976V25H31.9678V24.184L36.6238 19.624C37.2104 19.048 37.6051 18.552 37.8078 18.136C38.0211 17.7093 38.1278 17.2827 38.1278 16.856C38.1278 16.1947 37.8984 15.6827 37.4398 15.32C36.9918 14.9467 36.3464 14.76 35.5038 14.76C34.1918 14.76 33.1731 15.176 32.4478 16.008L31.6318 15.304C32.0691 14.792 32.6238 14.3973 33.2958 14.12C33.9784 13.8427 34.7464 13.704 35.5998 13.704C36.7411 13.704 37.6424 13.976 38.3038 14.52C38.9758 15.0533 39.3118 15.7893 39.3118 16.728C39.3118 17.304 39.1838 17.8587 38.9278 18.392C38.6718 18.9253 38.1864 19.5387 37.4718 20.232L33.6638 23.976H39.8238ZM20.8361 40.824V45.224H26.6281V46.248H20.8361V51H19.6521V39.8H27.3321V40.824H20.8361ZM36.5839 47.144H29.5439C29.6079 48.0187 29.9439 48.728 30.5519 49.272C31.1599 49.8053 31.9279 50.072 32.8559 50.072C33.3785 50.072 33.8585 49.9813 34.2959 49.8C34.7332 49.608 35.1119 49.3307 35.4319 48.968L36.0719 49.704C35.6985 50.152 35.2292 50.4933 34.6639 50.728C34.1092 50.9627 33.4959 51.08 32.8239 51.08C31.9599 51.08 31.1919 50.8987 30.5199 50.536C29.8585 50.1627 29.3412 49.6507 28.9679 49C28.5945 48.3493 28.4079 47.6133 28.4079 46.792C28.4079 45.9707 28.5839 45.2347 28.9359 44.584C29.2985 43.9333 29.7892 43.4267 30.4079 43.064C31.0372 42.7013 31.7412 42.52 32.5199 42.52C33.2985 42.52 33.9972 42.7013 34.6159 43.064C35.2345 43.4267 35.7199 43.9333 36.0719 44.584C36.4239 45.224 36.5999 45.96 36.5999 46.792L36.5839 47.144ZM32.5199 43.496C31.7092 43.496 31.0265 43.7573 30.4719 44.28C29.9279 44.792 29.6185 45.464 29.5439 46.296H35.5119C35.4372 45.464 35.1225 44.792 34.5679 44.28C34.0239 43.7573 33.3412 43.496 32.5199 43.496ZM43.2481 42.52C44.0375 42.52 44.7521 42.7013 45.3921 43.064C46.0321 43.416 46.5335 43.9173 46.8961 44.568C47.2588 45.2187 47.4401 45.96 47.4401 46.792C47.4401 47.624 47.2588 48.3653 46.8961 49.016C46.5335 49.6667 46.0321 50.1733 45.3921 50.536C44.7521 50.8987 44.0375 51.08 43.2481 51.08C42.5441 51.08 41.9095 50.9307 41.3441 50.632C40.7895 50.3333 40.3415 49.9013 40.0001 49.336V51H38.9121V39.128H40.0481V44.184C40.4001 43.64 40.8481 43.2293 41.3921 42.952C41.9468 42.664 42.5655 42.52 43.2481 42.52ZM43.1681 50.072C43.7548 50.072 44.2881 49.9387 44.7681 49.672C45.2481 49.3947 45.6215 49.0053 45.8881 48.504C46.1655 48.0027 46.3041 47.432 46.3041 46.792C46.3041 46.152 46.1655 45.5813 45.8881 45.08C45.6215 44.5787 45.2481 44.1947 44.7681 43.928C44.2881 43.6507 43.7548 43.512 43.1681 43.512C42.5708 43.512 42.0321 43.6507 41.5521 43.928C41.0828 44.1947 40.7095 44.5787 40.4321 45.08C40.1655 45.5813 40.0321 46.152 40.0321 46.792C40.0321 47.432 40.1655 48.0027 40.4321 48.504C40.7095 49.0053 41.0828 49.3947 41.5521 49.672C42.0321 49.9387 42.5708 50.072 43.1681 50.072Z" fill="white"/>
</g>
<defs>
<clipPath id="clip0_2143_184">
<rect width="66" height="65" fill="white"/>
</clipPath>
</defs>
</svg>
