<svg width="16" height="17" viewBox="0 0 16 17" fill="none" xmlns="http://www.w3.org/2000/svg">
<path fill-rule="evenodd" clip-rule="evenodd" d="M15.5 6.99771H9.99996V1.49821C9.99996 1.22148 9.77611 0.997185 9.49998 0.997185H6.4999C6.22387 0.997185 5.99991 1.22148 5.99991 1.49821V6.99771H0.499994C0.223838 6.99771 7.98702e-06 7.222 7.98702e-06 7.49792V10.498C7.98702e-06 10.7735 0.223838 10.9986 0.499994 10.9986H5.99991V16.4981C5.99991 16.7736 6.22387 16.9979 6.4999 16.9979H9.49998C9.77611 16.9979 9.99996 16.7736 9.99996 16.4981V10.9986H15.5C15.776 10.9986 16 10.7735 16 10.498V7.49792C16 7.222 15.776 6.99771 15.5 6.99771Z" fill="white"/>
</svg>
